<?xml version="1.0" encoding="UTF-8"?>
<!DOCTYPE svg PUBLIC "-//W3C//DTD SVG 1.1//EN" "http://www.w3.org/Graphics/SVG/1.1/DTD/svg11.dtd">
<!-- Creator: CorelDRAW 2021 (64-Bit) -->
<svg xmlns="http://www.w3.org/2000/svg" xml:space="preserve" width="29.7cm" height="21cm" version="1.1" style="shape-rendering:geometricPrecision; text-rendering:geometricPrecision; image-rendering:optimizeQuality; fill-rule:evenodd; clip-rule:evenodd"
viewBox="0 0 29700 21000"
 xmlns:xlink="http://www.w3.org/1999/xlink"
 xmlns:xodm="http://www.corel.com/coreldraw/odm/2003">
 <defs>
  <style type="text/css">
   <![CDATA[
    .fil2 {fill:none}
    .fil0 {fill:black}
    .fil1 {fill:#330066;fill-rule:nonzero}
   ]]>
  </style>
   <clipPath id="id0">
    <path d="M-0.53 7.13l29700 0 0 21000 -29700 0 0 -21000z"/>
   </clipPath>
 </defs>
 <g id="Layer_x0020_1">
  <metadata id="CorelCorpID_0Corel-Layer"/>
  <polygon class="fil0" points="-0.53,7.13 29699.47,7.13 29699.47,21007.13 -0.53,21007.13 "/>
  <g style="clip-path:url(#id0)">
   <g id="_2370243855264">
    <g>
     <path id="_1" class="fil1" d="M-3248.1 20976.03c-8.41,4.83 -19.15,1.93 -23.98,-6.48 -4.83,-8.41 -1.93,-19.15 6.48,-23.98l36212.61 -20907.36c8.41,-4.83 19.15,-1.93 23.98,6.48 4.83,8.41 1.93,19.15 -6.48,23.98l-36212.61 20907.36z"/>
     <path class="fil1" d="M-2991.32 21816.07c-8.29,5.22 -19.25,2.73 -24.47,-5.56 -5.22,-8.29 -2.74,-19.25 5.56,-24.47l35700.46 -22587.87c8.29,-5.22 19.25,-2.73 24.47,5.56 5.22,8.29 2.74,19.25 -5.56,24.47l-35700.46 22587.87z"/>
     <path class="fil1" d="M-2697.73 22653.57c-8.15,5.61 -19.32,3.55 -24.93,-4.61 -5.61,-8.16 -3.54,-19.33 4.61,-24.93l35114.68 -24263.36c8.16,-5.61 19.33,-3.54 24.94,4.61 5.61,8.16 3.54,19.33 -4.61,24.93l-35114.69 24263.36z"/>
     <path class="fil1" d="M-2367.07 23487c-8,5.99 -19.36,4.37 -25.35,-3.64 -6,-8 -4.37,-19.36 3.63,-25.35l34454.76 -25930.77c8.01,-5.99 19.37,-4.37 25.36,3.64 6,8 4.37,19.36 -3.63,25.35l-34454.77 25930.77z"/>
     <path class="fil1" d="M-1999.16 24314.8c-7.83,6.38 -19.36,5.21 -25.74,-2.63 -6.38,-7.83 -5.21,-19.37 2.63,-25.75l33720.34 -27586.98c7.83,-6.38 19.36,-5.2 25.74,2.63 6.38,7.84 5.21,19.37 -2.63,25.75l-33720.34 27586.98z"/>
     <path class="fil1" d="M-1593.88 25135.4c-7.64,6.76 -19.33,6.05 -26.1,-1.6 -6.76,-7.65 -6.04,-19.34 1.61,-26.1l32911.16 -29228.86c7.64,-6.76 19.33,-6.04 26.09,1.6 6.77,7.65 6.05,19.34 -1.6,26.1l-32911.16 29228.86z"/>
     <path class="fil1" d="M-1151.16 25947.2c-7.45,7.14 -19.28,6.89 -26.42,-0.55 -7.14,-7.45 -6.89,-19.28 0.55,-26.41l32027.1 -30853.19c7.45,-7.14 19.28,-6.9 26.42,0.54 7.14,7.45 6.89,19.28 -0.55,26.42l-32027.1 30853.19z"/>
     <path class="fil1" d="M-671.03 26748.58c-7.22,7.51 -19.17,7.75 -26.68,0.52 -7.51,-7.22 -7.75,-19.17 -0.53,-26.68l31068.18 -32456.75c7.22,-7.51 19.17,-7.75 26.68,-0.53 7.51,7.22 7.75,19.17 0.53,26.69l-31068.18 32456.75z"/>
     <path class="fil1" d="M-153.53 27537.91c-6.99,7.87 -19.04,8.6 -26.92,1.62 -7.88,-6.98 -8.61,-19.04 -1.62,-26.92l30034.51 -34036.27c6.99,-7.88 19.04,-8.61 26.92,-1.63 7.88,6.99 8.61,19.04 1.62,26.92l-30034.51 34036.28z"/>
     <path class="fil1" d="M401.18 28313.55c-6.73,8.23 -18.87,9.46 -27.11,2.74 -8.24,-6.73 -9.47,-18.87 -2.74,-27.11l28926.4 -35588.48c6.73,-8.24 18.87,-9.47 27.11,-2.74 8.24,6.73 9.47,18.86 2.74,27.1l-28926.4 35588.49z"/>
     <path class="fil1" d="M992.89 29073.84c-6.45,8.59 -18.65,10.33 -27.25,3.88 -8.59,-6.46 -10.33,-18.66 -3.87,-27.25l27744.25 -37110.07c6.45,-8.59 18.65,-10.33 27.25,-3.87 8.59,6.45 10.33,18.66 3.87,27.25l-27744.25 37110.06z"/>
     <path class="fil1" d="M1621.34 29817.13c-6.16,8.94 -18.41,11.19 -27.35,5.03 -8.93,-6.17 -11.19,-18.42 -5.02,-27.35l26488.6 -38597.69c6.16,-8.94 18.41,-11.2 27.35,-5.03 8.93,6.16 11.19,18.41 5.02,27.35l-26488.6 38597.69z"/>
     <path class="fil1" d="M2286.18 30541.75c-5.86,9.27 -18.13,12.05 -27.41,6.19 -9.27,-5.85 -12.05,-18.13 -6.19,-27.4l25160.15 -40048.04c5.86,-9.28 18.13,-12.06 27.41,-6.2 9.27,5.86 12.05,18.13 6.19,27.41l-25160.15 40048.04z"/>
     <path class="fil1" d="M2986.98 31246.03c-5.53,9.6 -17.81,12.91 -27.41,7.38 -9.6,-5.53 -12.91,-17.81 -7.38,-27.41l23759.74 -41457.79c5.53,-9.6 17.81,-12.9 27.41,-7.37 9.6,5.53 12.91,17.81 7.38,27.41l-23759.74 41457.78z"/>
     <path class="fil1" d="M3723.25 31928.31c-5.19,9.92 -17.44,13.76 -27.36,8.57 -9.92,-5.19 -13.76,-17.45 -8.57,-27.37l22288.34 -42823.58c5.19,-9.92 17.44,-13.76 27.36,-8.57 9.92,5.2 13.76,17.45 8.57,27.37l-22288.34 42823.58z"/>
     <path class="fil1" d="M4494.44 32586.93c-4.83,10.23 -17.05,14.61 -27.28,9.77 -10.22,-4.83 -14.6,-17.05 -9.77,-27.27l20747.08 -44142.12c4.84,-10.23 17.05,-14.6 27.28,-9.77 10.22,4.84 14.6,17.05 9.77,27.28l-20747.08 44142.11z"/>
     <path class="fil1" d="M5299.9 33220.24c-4.46,10.52 -16.62,15.44 -27.14,10.98 -10.52,-4.46 -15.44,-16.62 -10.98,-27.14l19137.23 -45410.07c4.46,-10.53 16.62,-15.44 27.14,-10.98 10.52,4.46 15.44,16.61 10.98,27.13l-19137.23 45410.08z"/>
     <path class="fil1" d="M6138.92 33826.59c-4.07,10.8 -16.14,16.27 -26.94,12.19 -10.81,-4.07 -16.27,-16.14 -12.2,-26.94l17460.21 -46624.18c4.07,-10.81 16.14,-16.27 26.94,-12.19 10.81,4.07 16.27,16.14 12.2,26.94l-17460.21 46624.18z"/>
     <path class="fil1" d="M7010.72 34404.35c-3.67,11.07 -15.63,17.08 -26.7,13.41 -11.08,-3.67 -17.08,-15.63 -13.41,-26.7l15717.58 -47781.16c3.67,-11.07 15.63,-17.08 26.7,-13.41 11.08,3.67 17.09,15.63 13.41,26.7l-15717.58 47781.16z"/>
     <path class="fil1" d="M7914.44 34951.91c-3.25,11.33 -15.08,17.88 -26.41,14.63 -11.33,-3.25 -17.88,-15.08 -14.63,-26.41l13911.07 -48877.79c3.26,-11.33 15.08,-17.88 26.41,-14.63 11.33,3.25 17.88,15.08 14.63,26.4l-13911.07 48877.8z"/>
     <path class="fil1" d="M8849.14 35467.67c-2.82,11.57 -14.49,18.68 -26.06,15.86 -11.57,-2.82 -18.67,-14.49 -15.85,-26.06l12042.54 -49910.9c2.82,-11.57 14.49,-18.67 26.06,-15.85 11.57,2.82 18.67,14.49 15.85,26.06l-12042.54 49910.89z"/>
     <path class="fil1" d="M9813.82 35950.08c-2.37,11.79 -13.86,19.44 -25.66,17.07 -11.79,-2.38 -19.44,-13.86 -17.06,-25.66l10113.99 -50877.32c2.37,-11.79 13.86,-19.44 25.66,-17.07 11.79,2.37 19.44,13.86 17.07,25.66l-10114 50877.32z"/>
     <path class="fil1" d="M10807.4 36397.58c-1.91,12 -13.2,20.19 -25.2,18.28 -12.01,-1.92 -20.2,-13.2 -18.28,-25.2l8127.59 -51773.99c1.92,-12 13.2,-20.19 25.2,-18.28 12.01,1.92 20.2,13.2 18.29,25.2l-8127.6 51773.99z"/>
     <path class="fil1" d="M11828.72 36808.65c-1.44,12.2 -12.5,20.93 -24.69,19.49 -12.2,-1.44 -20.93,-12.5 -19.49,-24.69l6085.65 -52597.85c1.44,-12.2 12.5,-20.93 24.7,-19.49 12.19,1.44 20.92,12.5 19.48,24.69l-6085.65 52597.85z"/>
     <path class="fil1" d="M12876.55 37181.83c-0.95,12.37 -11.76,21.63 -24.13,20.68 -12.37,-0.95 -21.63,-11.76 -20.68,-24.13l3990.62 -53345.96c0.95,-12.37 11.76,-21.63 24.13,-20.68 12.37,0.96 21.63,11.76 20.68,24.13l-3990.62 53345.96z"/>
     <path class="fil1" d="M13949.6 37515.66c-0.45,12.52 -10.98,22.32 -23.51,21.86 -12.53,-0.45 -22.32,-10.98 -21.86,-23.51l1845.08 -54015.42c0.46,-12.52 10.98,-22.32 23.51,-21.86 12.53,0.46 22.32,10.98 21.87,23.51l-1845.09 54015.42z"/>
     <path class="fil1" d="M15046.5 37808.74c0.05,12.66 -10.18,22.98 -22.84,23.03 -12.67,0.05 -22.99,-10.18 -23.04,-22.84l-348.2 -54603.41c-0.05,-12.67 10.17,-22.99 22.84,-23.04 12.66,-0.05 22.98,10.18 23.03,22.84l348.21 54603.42z"/>
     <path class="fil1" d="M16165.79 38059.7c0.57,12.78 -9.33,23.62 -22.11,24.19 -12.78,0.57 -23.62,-9.33 -24.19,-22.12l-2586.37 -55107.22c-0.57,-12.78 9.33,-23.61 22.11,-24.18 12.79,-0.58 23.62,9.33 24.19,22.11l2586.37 55107.22z"/>
     <path class="fil1" d="M17305.98 38267.23c1.1,12.88 -8.45,24.22 -21.33,25.32 -12.88,1.1 -24.23,-8.45 -25.33,-21.33l-4866.39 -55524.2c-1.09,-12.88 8.46,-24.22 21.34,-25.32 12.88,-1.1 24.22,8.45 25.32,21.33l4866.39 55524.2z"/>
     <path class="fil1" d="M18465.48 38430.07c1.64,12.95 -7.54,24.8 -20.5,26.43 -12.96,1.64 -24.8,-7.54 -26.44,-20.5l-7185.1 -55851.81c-1.64,-12.96 7.54,-24.8 20.49,-26.44 12.96,-1.64 24.8,7.54 26.44,20.5l7185.11 55851.82z"/>
     <path class="fil1" d="M19642.64 38546.99c2.19,13.01 -6.59,25.34 -19.61,27.53 -13.01,2.18 -25.34,-6.6 -27.52,-19.62l-9539.24 -56087.64c-2.18,-13.01 6.6,-25.34 19.61,-27.52 13.02,-2.19 25.35,6.59 27.53,19.61l9539.23 56087.64z"/>
     <path class="fil1" d="M20835.76 38616.84c2.74,13.05 -5.62,25.86 -18.67,28.59 -13.05,2.74 -25.85,-5.62 -28.59,-18.67l-11925.35 -56229.35c-2.73,-13.05 5.63,-25.85 18.67,-28.59 13.05,-2.73 25.86,5.62 28.59,18.67l11925.35 56229.35z"/>
     <path class="fil1" d="M22043.06 38638.52c3.3,13.06 -4.62,26.33 -17.68,29.63 -13.06,3.3 -26.33,-4.62 -29.62,-17.68l-14339.9 -56274.74c-3.3,-13.06 4.61,-26.33 17.67,-29.63 13.06,-3.29 26.33,4.62 29.63,17.68l14339.9 56274.74z"/>
     <path class="fil1" d="M23262.7 38611c3.86,13.05 -3.59,26.77 -16.63,30.63 -13.05,3.86 -26.77,-3.59 -30.63,-16.64l-16779.22 -56221.74c-3.86,-13.04 3.58,-26.76 16.63,-30.62 13.05,-3.87 26.77,3.58 30.63,16.63l16779.22 56221.74z"/>
     <path class="fil1" d="M24492.78 38533.29c4.44,13.02 -2.52,27.17 -15.53,31.6 -13.02,4.44 -27.17,-2.52 -31.6,-15.53l-19239.52 -56068.4c-4.43,-13.01 2.53,-27.17 15.54,-31.6 13.02,-4.43 27.17,2.52 31.6,15.54l19239.51 56068.39z"/>
     <path class="fil1" d="M25731.36 38404.5c5.01,12.96 -1.44,27.53 -14.39,32.54 -12.96,5.01 -27.53,-1.43 -32.54,-14.39l-21716.87 -55812.9c-5.01,-12.96 1.43,-27.53 14.39,-32.54 12.96,-5 27.53,1.44 32.54,14.39l21716.87 55812.9z"/>
     <path class="fil1" d="M26976.41 38223.8c5.59,12.87 -0.32,27.85 -13.19,33.43 -12.88,5.59 -27.85,-0.32 -33.44,-13.19l-24207.27 -55453.59c-5.59,-12.87 0.32,-27.84 13.19,-33.43 12.88,-5.59 27.85,0.32 33.44,13.2l24207.27 55453.58z"/>
     <path class="fil1" d="M28225.88 37990.42c6.17,12.77 0.82,28.13 -11.95,34.29 -12.77,6.17 -28.13,0.82 -34.29,-11.95l-26706.6 -54988.93c-6.17,-12.77 -0.82,-28.12 11.95,-34.29 12.77,-6.16 28.12,-0.81 34.29,11.95l26706.6 54988.93z"/>
     <path class="fil1" d="M29477.66 37703.69c6.74,12.64 1.97,28.36 -10.67,35.11 -12.63,6.74 -28.36,1.97 -35.1,-10.67l-29210.63 -54417.57c-6.74,-12.63 -1.97,-28.36 10.67,-35.1 12.63,-6.75 28.36,-1.98 35.1,10.66l29210.63 54417.57z"/>
     <path class="fil1" d="M30729.57 37363.01c7.33,12.48 3.16,28.54 -9.33,35.87 -12.48,7.33 -28.54,3.15 -35.87,-9.33l-31715.02 -53738.3c-7.33,-12.48 -3.15,-28.55 9.33,-35.88 12.48,-7.32 28.54,-3.15 35.87,9.33l31715.02 53738.31z"/>
     <path class="fil1" d="M31979.42 36967.85c7.91,12.3 4.35,28.69 -7.95,36.6 -12.3,7.9 -28.69,4.35 -36.59,-7.95l-34215.38 -52950.09c-7.91,-12.3 -4.35,-28.69 7.95,-36.6 12.3,-7.91 28.69,-4.35 36.6,7.95l34215.37 52950.09z"/>
     <path class="fil1" d="M33224.95 36517.79c8.49,12.09 5.57,28.78 -6.52,37.27 -12.09,8.48 -28.79,5.56 -37.27,-6.53l-36707.19 -52052.06c-8.49,-12.09 -5.57,-28.79 6.52,-37.27 12.1,-8.49 28.79,-5.57 37.27,6.52l36707.19 52052.07z"/>
     <path class="fil1" d="M34463.88 36012.48c9.06,11.86 6.8,28.83 -5.06,37.89 -11.86,9.06 -28.83,6.8 -37.89,-5.06l-39185.89 -51043.53c-9.06,-11.86 -6.8,-28.83 5.06,-37.89 11.86,-9.06 28.83,-6.8 37.89,5.06l39185.89 51043.53z"/>
     <path class="fil1" d="M35693.89 35451.67c9.63,11.6 8.04,28.82 -3.56,38.45 -11.6,9.64 -28.83,8.05 -38.46,-3.56l-41646.83 -49923.97c-9.64,-11.6 -8.05,-28.82 3.56,-38.46 11.6,-9.63 28.82,-8.04 38.45,3.56l41646.84 49923.98z"/>
     <path class="fil1" d="M36912.6 34835.19c10.2,11.32 9.3,28.77 -2.01,38.97 -11.32,10.2 -28.77,9.3 -38.97,-2.02l-44085.3 -48693.07c-10.2,-11.32 -9.3,-28.77 2.02,-38.97 11.31,-10.2 28.77,-9.3 38.97,2.02l44085.29 48693.07z"/>
     <path class="fil1" d="M38117.65 34162.98c10.76,11.01 10.57,28.67 -0.44,39.42 -11.01,10.76 -28.66,10.57 -39.42,-0.44l-46496.52 -47350.69c-10.76,-11.01 -10.56,-28.66 0.44,-39.42 11.01,-10.76 28.66,-10.56 39.42,0.44l46496.52 47350.69z"/>
     <path class="fil1" d="M39306.62 33435.08c11.32,10.67 11.84,28.5 1.17,39.81 -10.67,11.31 -28.5,11.84 -39.81,1.17l-48875.68 -45896.88c-11.31,-10.68 -11.84,-28.51 -1.17,-39.82 10.67,-11.31 28.5,-11.83 39.82,-1.16l48875.67 45896.88z"/>
     <path class="fil1" d="M40477.08 32651.61c11.86,10.31 13.12,28.28 2.81,40.14 -10.31,11.85 -28.29,13.11 -40.14,2.81l-51217.91 -44331.91c-11.85,-10.31 -13.11,-28.29 -2.8,-40.14 10.3,-11.86 28.28,-13.12 40.14,-2.81l51217.9 44331.91z"/>
     <path class="fil1" d="M41626.58 31812.79c12.39,9.92 14.4,28.02 4.48,40.41 -9.93,12.39 -28.02,14.4 -40.41,4.48l-53518.3 -42656.22c-12.39,-9.92 -14.4,-28.02 -4.48,-40.41 9.92,-12.39 28.02,-14.39 40.41,-4.47l53518.3 42656.21z"/>
     <path class="fil1" d="M42752.65 30918.97c12.91,9.51 15.68,27.7 6.17,40.61 -9.51,12.92 -27.69,15.68 -40.61,6.18l-55771.93 -40870.48c-12.92,-9.51 -15.69,-27.69 -6.18,-40.61 9.51,-12.91 27.7,-15.68 40.61,-6.17l55771.94 40870.47z"/>
     <path class="fil1" d="M43852.82 29970.59c13.43,9.07 16.97,27.31 7.9,40.74 -9.07,13.42 -27.32,16.96 -40.75,7.89l-57973.86 -38975.55c-13.43,-9.07 -16.97,-27.32 -7.9,-40.74 9.07,-13.43 27.32,-16.97 40.74,-7.9l57973.87 38975.56z"/>
     <path class="fil1" d="M44924.61 28968.17c13.93,8.61 18.25,26.88 9.64,40.81 -8.61,13.92 -26.88,18.24 -40.8,9.63l-60119.14 -36972.53c-13.92,-8.6 -18.24,-26.88 -9.63,-40.8 8.6,-13.93 26.88,-18.24 40.8,-9.64l60119.13 36972.53z"/>
     <path class="fil1" d="M45965.55 27912.38c14.41,8.12 19.52,26.39 11.4,40.8 -8.12,14.4 -26.39,19.51 -40.8,11.39l-62202.77 -34862.69c-14.41,-8.12 -19.52,-26.39 -11.4,-40.8 8.12,-14.41 26.39,-19.52 40.8,-11.4l62202.77 34862.7z"/>
     <path class="fil1" d="M46973.15 26803.96c14.87,7.61 20.78,25.84 13.17,40.72 -7.6,14.88 -25.84,20.78 -40.72,13.18l-64219.82 -32647.57c-14.87,-7.61 -20.78,-25.84 -13.17,-40.72 7.6,-14.88 25.84,-20.78 40.72,-13.17l64219.82 32647.56z"/>
     <path class="fil1" d="M47944.94 25643.79c15.33,7.07 22.03,25.24 14.96,40.57 -7.06,15.33 -25.23,22.04 -40.56,14.97l-66165.35 -30328.87c-15.33,-7.07 -22.03,-25.23 -14.96,-40.56 7.06,-15.33 25.23,-22.04 40.56,-14.97l66165.35 30328.86z"/>
     <path class="fil1" d="M48878.46 24432.84c15.77,6.51 23.28,24.57 16.77,40.34 -6.51,15.76 -24.57,23.28 -40.33,16.77l-68034.43 -27908.54c-15.77,-6.51 -23.28,-24.57 -16.77,-40.34 6.51,-15.76 24.57,-23.27 40.33,-16.76l68034.43 27908.53z"/>
     <path class="fil1" d="M49771.28 23172.19c16.18,5.93 24.51,23.86 18.58,40.04 -5.92,16.18 -23.85,24.5 -40.03,18.58l-69822.18 -25388.75c-16.18,-5.92 -24.51,-23.85 -18.58,-40.03 5.92,-16.18 23.85,-24.51 40.03,-18.58l69822.18 25388.74z"/>
     <path class="fil1" d="M50620.98 21863.04c16.57,5.32 25.71,23.08 20.39,39.65 -5.32,16.58 -23.07,25.72 -39.65,20.4l-71523.77 -22771.88c-16.57,-5.32 -25.71,-23.07 -20.39,-39.65 5.32,-16.58 23.08,-25.71 39.65,-20.39l71523.77 22771.87z"/>
     <path class="fil1" d="M51425.15 20506.69c16.95,4.69 26.9,22.24 22.21,39.19 -4.69,16.96 -22.24,26.91 -39.19,22.22l-73134.39 -20060.54c-16.95,-4.69 -26.9,-22.24 -22.21,-39.19 4.69,-16.95 22.24,-26.9 39.19,-22.21l73134.39 20060.53z"/>
     <path class="fil1" d="M52181.44 19104.56c17.31,4.04 28.07,21.35 24.03,38.65 -4.05,17.31 -21.36,28.07 -38.66,24.03l-74649.32 -17257.55c-17.3,-4.04 -28.07,-21.35 -24.02,-38.65 4.04,-17.31 21.35,-28.07 38.65,-24.03l74649.32 17257.55z"/>
     <path class="fil1" d="M52887.52 17658.17c17.63,3.37 29.21,20.4 25.83,38.04 -3.37,17.63 -20.4,29.21 -38.04,25.83l-76063.89 -14365.96c-17.64,-3.37 -29.21,-20.4 -25.84,-38.04 3.37,-17.63 20.41,-29.2 38.04,-25.83l76063.9 14365.96z"/>
     <path class="fil1" d="M53541.09 16169.16c17.94,2.68 30.32,19.4 27.64,37.34 -2.68,17.94 -19.4,30.32 -37.34,27.64l-77373.55 -11389.04c-17.94,-2.69 -30.32,-19.41 -27.64,-37.35 2.68,-17.94 19.41,-30.32 37.35,-27.64l77373.54 11389.05z"/>
     <path class="fil1" d="M54139.93 14639.27c18.22,1.97 31.4,18.35 29.43,36.56 -1.98,18.22 -18.35,31.41 -36.57,29.43l-78573.78 -8330.28c-18.22,-1.97 -31.41,-18.34 -29.43,-36.56 1.97,-18.22 18.35,-31.41 36.57,-29.43l78573.78 8330.28z"/>
     <path class="fil1" d="M54681.83 13070.35c18.47,1.25 32.45,17.24 31.2,35.71 -1.25,18.48 -17.24,32.45 -35.71,31.21l-79660.21 -5193.37c-18.47,-1.25 -32.45,-17.24 -31.21,-35.71 1.25,-18.48 17.24,-32.45 35.71,-31.21l79660.22 5193.37z"/>
     <path class="fil1" d="M55164.65 11464.38c18.7,0.5 33.47,16.07 32.96,34.77 -0.5,18.7 -16.07,33.46 -34.77,32.96l-80628.56 -1982.24c-18.7,-0.5 -33.46,-16.07 -32.96,-34.77 0.5,-18.7 16.07,-33.46 34.77,-32.96l80628.56 1982.24z"/>
     <path class="fil1" d="M55586.33 9823.4c18.9,-0.26 34.44,14.85 34.7,33.75 0.25,18.9 -14.86,34.44 -33.76,34.7l-81474.66 1299c-18.9,0.26 -34.44,-14.85 -34.7,-33.75 -0.26,-18.9 14.86,-34.44 33.75,-34.7l81474.67 -1299z"/>
     <path class="fil1" d="M55944.84 8149.59c19.07,-1.03 35.38,13.59 36.41,32.66 1.03,19.06 -13.59,35.37 -32.65,36.41l-82194.5 4645.99c-19.07,1.04 -35.38,-13.58 -36.41,-32.65 -1.04,-19.06 13.58,-35.37 32.65,-36.41l82194.5 -4646z"/>
     <path class="fil1" d="M56238.25 6445.24c19.2,-1.83 36.26,12.26 38.09,31.47 1.82,19.2 -12.27,36.26 -31.47,38.09l-82784.18 8054.21c-19.21,1.83 -36.27,-12.26 -38.09,-31.47 -1.83,-19.2 12.27,-36.27 31.47,-38.09l82784.18 -8054.21z"/>
     <path class="fil1" d="M56464.68 4712.7c19.31,-2.63 37.11,10.9 39.74,30.21 2.63,19.31 -10.9,37.11 -30.21,39.74l-83239.95 11518.9c-19.32,2.63 -37.12,-10.9 -39.74,-30.21 -2.63,-19.31 10.9,-37.11 30.21,-39.74l83239.95 -11518.9z"/>
     <path class="fil1" d="M56622.35 2954.46c19.39,-3.45 37.91,9.48 41.36,28.87 3.44,19.38 -9.49,37.91 -28.88,41.35l-83558.24 15035.11c-19.39,3.44 -37.91,-9.48 -41.36,-28.87 -3.44,-19.39 9.49,-37.91 28.87,-41.35l83558.25 -15035.11z"/>
     <path class="fil1" d="M56709.56 1173.08c19.43,-4.27 38.66,8.02 42.92,27.45 4.27,19.43 -8.02,38.66 -27.45,42.93l-83735.65 18597.71c-19.43,4.27 -38.66,-8.02 -42.92,-27.45 -4.27,-19.43 8.02,-38.66 27.45,-42.93l83735.65 -18597.71z"/>
     <path class="fil1" d="M56724.68 -628.77c19.44,-5.11 39.35,6.51 44.46,25.96 5.1,19.44 -6.52,39.35 -25.96,44.45l-83768.92 22201.38c-19.44,5.1 -39.35,-6.52 -44.46,-25.96 -5.1,-19.44 6.52,-39.35 25.96,-44.46l83768.92 -22201.37z"/>
     <path class="fil1" d="M56666.19 -2448.33c19.42,-5.95 40,4.96 45.95,24.38 5.95,19.42 -4.97,39.99 -24.39,45.94l-83655 25840.59c-19.42,5.95 -40,-4.97 -45.95,-24.38 -5.95,-19.42 4.97,-40 24.39,-45.95l83655 -25840.58z"/>
     <path class="fil1" d="M56532.68 -4282.77c19.36,-6.8 40.58,3.38 47.38,22.74 6.8,19.36 -3.38,40.57 -22.73,47.37l-83391.07 29509.67c-19.36,6.8 -40.58,-3.38 -47.38,-22.73 -6.8,-19.36 3.38,-40.58 22.73,-47.38l83391.07 -29509.67z"/>
     <path class="fil1" d="M56322.82 -6129.14c19.27,-7.65 41.1,1.75 48.76,21.01 7.66,19.26 -1.75,41.1 -21.01,48.76l-82974.45 33202.75c-19.27,7.66 -41.1,-1.75 -48.76,-21.01 -7.66,-19.26 1.75,-41.1 21.01,-48.76l82974.45 -33202.75z"/>
     <path class="fil1" d="M56035.4 -7984.44c19.14,-8.52 41.57,0.08 50.08,19.22 8.52,19.13 -0.08,41.56 -19.21,50.08l-82402.73 36913.82c-19.13,8.52 -41.56,-0.08 -50.08,-19.21 -8.52,-19.14 0.08,-41.56 19.21,-50.08l82402.73 -36913.83z"/>
     <path class="fil1" d="M55669.32 -9845.58c18.97,-9.38 41.96,-1.62 51.34,17.35 9.38,18.96 1.62,41.96 -17.34,51.34l-81673.7 40636.71c-18.96,9.38 -41.96,1.62 -51.34,-17.35 -9.38,-18.96 -1.62,-41.96 17.35,-51.34l81673.69 -40636.71z"/>
     <path class="fil1" d="M55223.59 -11709.39c18.76,-10.25 42.29,-3.35 52.54,15.41 10.25,18.76 3.35,42.29 -15.41,52.54l-80785.37 44365.07c-18.76,10.25 -42.29,3.35 -52.54,-15.41 -10.24,-18.76 -3.35,-42.29 15.41,-52.54l80785.37 -44365.07z"/>
    </g>
   </g>
  </g>
  <polygon class="fil2" points="-0.53,7.13 29699.47,7.13 29699.47,21007.13 -0.53,21007.13 "/>
 </g>
</svg>
