<?xml version="1.0" encoding="UTF-8"?>
<svg version="1.1" xmlns="http://www.w3.org/2000/svg" width="256" height="256">
<path d="M0 0 C21.15334362 17.98714067 35.7216944 44.76737954 38.05078125 72.6171875 C40.15108163 106.90924781 29.36721255 135.00949433 7.09765625 160.88671875 C-11.62039633 180.86620531 -39.7962916 192.6524822 -66.88671875 193.78125 C-95.20264886 194.4944897 -122.78615723 185.84971157 -143.94921875 166.6171875 C-144.62597656 166.0809375 -145.30273438 165.5446875 -146 164.9921875 C-166.37486405 148.65963115 -178.17862406 121.32580554 -181.69921875 96.0546875 C-181.81219757 94.57748939 -181.89125941 93.09756556 -181.94921875 91.6171875 C-182.00078125 90.48667969 -182.05234375 89.35617188 -182.10546875 88.19140625 C-182.77443657 60.0111369 -173.85944405 34.37455506 -155.94921875 12.6171875 C-155.03269531 11.45509766 -155.03269531 11.45509766 -154.09765625 10.26953125 C-137.02295747 -10.32909472 -110.3789086 -23.06635326 -84.109375 -26.18212891 C-53.05264665 -29.06737198 -23.93514628 -19.84138701 0 0 Z " fill="#E7E7E8" transform="translate(199.94921875,44.3828125)"/>
<path d="M0 0 C1.05703125 0.00515625 2.1140625 0.0103125 3.203125 0.015625 C10.97049513 0.09549513 10.97049513 0.09549513 12.125 1.25 C12.21131874 2.59267413 12.23206473 3.93974322 12.22265625 5.28515625 C12.21943359 6.09404297 12.21621094 6.90292969 12.21289062 7.73632812 C12.20032227 9.0115332 12.20032227 9.0115332 12.1875 10.3125 C12.18298828 11.16650391 12.17847656 12.02050781 12.17382812 12.90039062 C12.16200373 15.01695663 12.14406769 17.13348685 12.125 19.25 C10.47951172 19.27126953 10.47951172 19.27126953 8.80078125 19.29296875 C7.34631302 19.33988708 5.89188723 19.38813438 4.4375 19.4375 C3.3556543 19.44620117 3.3556543 19.44620117 2.25195312 19.45507812 C-1.60862004 19.61373182 -3.5503119 20.03468052 -6.84375 22.21875 C-9.61851215 26.3595489 -9.65102617 29.68511457 -9.6875 34.5625 C-9.749375 37.429375 -9.81125 40.29625 -9.875 43.25 C-2.945 43.25 3.985 43.25 11.125 43.25 C10.15175226 50.54935803 9.15281764 57.15263827 7.125 64.25 C1.845 64.25 -3.435 64.25 -8.875 64.25 C-8.875 80.75 -8.875 97.25 -8.875 114.25 C-16.135 114.25 -23.395 114.25 -30.875 114.25 C-30.875 97.42 -30.875 80.59 -30.875 63.25 C-36.155 63.25 -41.435 63.25 -46.875 63.25 C-46.875 56.65 -46.875 50.05 -46.875 43.25 C-41.265 43.25 -35.655 43.25 -29.875 43.25 C-29.92140625 41.4659375 -29.9678125 39.681875 -30.015625 37.84375 C-30.0531578 35.47918348 -30.08955634 33.11459876 -30.125 30.75 C-30.17527344 28.99042969 -30.17527344 28.99042969 -30.2265625 27.1953125 C-30.31763566 19.08980113 -29.4762182 13.52277404 -24.19921875 7.26171875 C-23.65910156 6.82472656 -23.11898437 6.38773437 -22.5625 5.9375 C-22.03011719 5.48761719 -21.49773437 5.03773437 -20.94921875 4.57421875 C-13.91636449 0.08431744 -8.20992981 -0.16378912 0 0 Z " fill="#3B5B96" transform="translate(145.875,70.75)"/>
<path d="M0 0 C7.59 0.33 15.18 0.66 23 1 C23 1.66 23 2.32 23 3 C19.72966072 3.19689005 16.45872059 3.38089008 13.1875 3.5625 C11.7943457 3.64661133 11.7943457 3.64661133 10.37304688 3.73242188 C9.48037109 3.78076172 8.58769531 3.82910156 7.66796875 3.87890625 C6.84578857 3.9260376 6.0236084 3.97316895 5.17651367 4.02172852 C3 4 3 4 0 3 C0 2.01 0 1.02 0 0 Z " fill="#DCE6F2" transform="translate(114,184)"/>
<path d="M0 0 C0 0.66 0 1.32 0 2 C0.99 2.33 1.98 2.66 3 3 C-2.61 3 -8.22 3 -14 3 C-14 2.34 -14 1.68 -14 1 C-12.04175306 0.83232136 -10.08339945 0.66588795 -8.125 0.5 C-6.48917969 0.36078125 -6.48917969 0.36078125 -4.8203125 0.21875 C-3.21670436 0.09437042 -1.60842449 0 0 0 Z " fill="#DBE6F1" transform="translate(150,68)"/>
<path d="M0 0 C0.33 0 0.66 0 1 0 C1 5.94 1 11.88 1 18 C0.67 18 0.34 18 0 18 C0 12.06 0 6.12 0 0 Z " fill="#E9E9E9" transform="translate(239,119)"/>
<path d="M0 0 C0.66 0 1.32 0 2 0 C1.67 2.97 1.34 5.94 1 9 C-1 7 -1 7 -1.1875 3.9375 C-1 1 -1 1 0 0 Z " fill="#466190" transform="translate(155,115)"/>
<path d="M0 0 C4.62 0 9.24 0 14 0 C14 0.33 14 0.66 14 1 C9.38 1 4.76 1 0 1 C0 0.67 0 0.34 0 0 Z " fill="#E8E8E8" transform="translate(121,16)"/>
<path d="M0 0 C4.29 0 8.58 0 13 0 C13 0.33 13 0.66 13 1 C8.71 1 4.42 1 0 1 C0 0.67 0 0.34 0 0 Z " fill="#E8E8E8" transform="translate(122,239)"/>
<path d="M0 0 C1.98 0 3.96 0 6 0 C6 0.33 6 0.66 6 1 C4.02 1 2.04 1 0 1 C0 0.67 0 0.34 0 0 Z " fill="#E9E9E9" transform="translate(139,238)"/>
<path d="M0 0 C0.33 0 0.66 0 1 0 C1 1.98 1 3.96 1 6 C0.67 6 0.34 6 0 6 C0 4.02 0 2.04 0 0 Z " fill="#E8E8E8" transform="translate(17,137)"/>
<path d="M0 0 C0.33 0 0.66 0 1 0 C1 1.98 1 3.96 1 6 C0.67 6 0.34 6 0 6 C0 4.02 0 2.04 0 0 Z " fill="#E8E8E8" transform="translate(16,125)"/>
<path d="M0 0 C0.33 0 0.66 0 1 0 C1 1.98 1 3.96 1 6 C0.67 6 0.34 6 0 6 C0 4.02 0 2.04 0 0 Z " fill="#E9E9E9" transform="translate(17,113)"/>
<path d="M0 0 C1.98 0 3.96 0 6 0 C6 0.33 6 0.66 6 1 C4.02 1 2.04 1 0 1 C0 0.67 0 0.34 0 0 Z " fill="#E8E8E8" transform="translate(139,17)"/>
<path d="M0 0 C1.65 0 3.3 0 5 0 C5 0.33 5 0.66 5 1 C3.35 1 1.7 1 0 1 C0 0.67 0 0.34 0 0 Z " fill="#E9E9E9" transform="translate(112,238)"/>
<path d="M0 0 C0.33 0 0.66 0 1 0 C1 1.65 1 3.3 1 5 C0.67 5 0.34 5 0 5 C0 3.35 0 1.7 0 0 Z " fill="#E9E9E9" transform="translate(238,140)"/>
<path d="M0 0 C0.33 0 0.66 0 1 0 C1 1.65 1 3.3 1 5 C0.67 5 0.34 5 0 5 C0 3.35 0 1.7 0 0 Z " fill="#E8E8E8" transform="translate(238,111)"/>
<path d="M0 0 C1.65 0 3.3 0 5 0 C5 0.33 5 0.66 5 1 C3.35 1 1.7 1 0 1 C0 0.67 0 0.34 0 0 Z " fill="#E8E8E8" transform="translate(112,17)"/>
<path d="M0 0 C4 1 4 1 4 1 Z " fill="#E9E9E9" transform="translate(146,237)"/>
<path d="M0 0 C4 1 4 1 4 1 Z " fill="#E9E9E9" transform="translate(106,237)"/>
<path d="M0 0 C1 4 1 4 1 4 Z " fill="#E8E8E8" transform="translate(237,147)"/>
<path d="M0 0 C1 4 1 4 1 4 Z " fill="#E9E9E9" transform="translate(18,145)"/>
<path d="M0 0 C1 4 1 4 1 4 Z " fill="#E9E9E9" transform="translate(18,107)"/>
<path d="M0 0 C1 4 1 4 1 4 Z " fill="#E8E8E8" transform="translate(237,105)"/>
<path d="M0 0 C4 1 4 1 4 1 Z " fill="#EAEAEA" transform="translate(106,18)"/>
<path d="M0 0 C3 1 3 1 3 1 Z " fill="#E9E9E9" transform="translate(152,236)"/>
<path d="M0 0 C3 1 3 1 3 1 Z " fill="#E9E9E9" transform="translate(102,236)"/>
<path d="M0 0 C3 1 3 1 3 1 Z " fill="#E9E9E9" transform="translate(98,235)"/>
<path d="M0 0 C3 1 3 1 3 1 Z " fill="#E8E8E8" transform="translate(159,234)"/>
<path d="M0 0 C3 1 3 1 3 1 Z " fill="#E7E7E7" transform="translate(162,233)"/>
<path d="" fill="#E4E4E4" transform="translate(0,0)"/>
<path d="" fill="#EAEAEA" transform="translate(0,0)"/>
<path d="" fill="#E9E9E9" transform="translate(0,0)"/>
<path d="" fill="#E9E9E9" transform="translate(0,0)"/>
<path d="" fill="#E9E9E9" transform="translate(0,0)"/>
<path d="" fill="#E9E9E9" transform="translate(0,0)"/>
<path d="" fill="#E9E9E9" transform="translate(0,0)"/>
<path d="" fill="#E4E4E4" transform="translate(0,0)"/>
<path d="M0 0 C3 1 3 1 3 1 Z " fill="#E9E9E9" transform="translate(159,21)"/>
<path d="M0 0 C3 1 3 1 3 1 Z " fill="#EAEAEA" transform="translate(156,20)"/>
<path d="M0 0 C3 1 3 1 3 1 Z " fill="#EAEAEA" transform="translate(152,19)"/>
<path d="M0 0 C3 1 3 1 3 1 Z " fill="#EAEAEA" transform="translate(102,19)"/>
<path d="M0 0 C3 1 3 1 3 1 Z " fill="#EAEAEA" transform="translate(147,18)"/>
<path d="M0 0 C2 1 2 1 2 1 Z " fill="#E6E6E6" transform="translate(156,235)"/>
<path d="M0 0 C2 1 2 1 2 1 Z " fill="#E9E9E9" transform="translate(95,234)"/>
<path d="M0 0 C2 1 2 1 2 1 Z " fill="#E9E9E9" transform="translate(92,233)"/>
<path d="M0 0 C2 1 2 1 2 1 Z " fill="#E7E7E7" transform="translate(165,232)"/>
<path d="M0 0 C2 1 2 1 2 1 Z " fill="#E9E9E9" transform="translate(89,232)"/>
<path d="M0 0 C2 1 2 1 2 1 Z " fill="#E4E4E4" transform="translate(168,231)"/>
<path d="M0 0 C2 1 2 1 2 1 Z " fill="#E9E9E9" transform="translate(86,231)"/>
<path d="M0 0 C2 1 2 1 2 1 Z " fill="#E9E9E9" transform="translate(170,230)"/>
<path d="M0 0 C2 1 2 1 2 1 Z " fill="#E9E9E9" transform="translate(84,230)"/>
<path d="M0 0 C2 1 2 1 2 1 Z " fill="#E9E9E9" transform="translate(82,229)"/>
<path d="M0 0 C2 1 2 1 2 1 Z " fill="#E8E8E8" transform="translate(175,228)"/>
<path d="M0 0 C2 1 2 1 2 1 Z " fill="#E9E9E9" transform="translate(177,227)"/>
<path d="M0 0 C2 1 2 1 2 1 Z " fill="#E9E9E9" transform="translate(74,225)"/>
<path d="M0 0 C2 1 2 1 2 1 Z " fill="#E8E8E8" transform="translate(182,224)"/>
<path d="M0 0 C2 1 2 1 2 1 Z " fill="#EAEAEA" transform="translate(72,224)"/>
<path d="M0 0 C2 1 2 1 2 1 Z " fill="#E6E6E6" transform="translate(184,223)"/>
<path d="M0 0 C2 1 2 1 2 1 Z " fill="#E8E8E8" transform="translate(187,221)"/>
<path d="M0 0 C2 1 2 1 2 1 Z " fill="#E9E9E9" transform="translate(190,219)"/>
<path d="M0 0 C2 1 2 1 2 1 Z " fill="#E8E8E8" transform="translate(198,213)"/>
<path d="M0 0 C2 1 2 1 2 1 Z " fill="#E9E9E9" transform="translate(54,211)"/>
<path d="" fill="#E9E9E9" transform="translate(0,0)"/>
<path d="" fill="#E8E8E8" transform="translate(0,0)"/>
<path d="" fill="#E7E7E7" transform="translate(0,0)"/>
<path d="" fill="#E8E8E8" transform="translate(0,0)"/>
<path d="" fill="#E8E8E8" transform="translate(0,0)"/>
<path d="" fill="#EAEAEA" transform="translate(0,0)"/>
<path d="" fill="#E8E8E8" transform="translate(0,0)"/>
<path d="" fill="#E8E8E8" transform="translate(0,0)"/>
<path d="" fill="#E8E8E8" transform="translate(0,0)"/>
<path d="" fill="#E7E7E7" transform="translate(0,0)"/>
<path d="" fill="#E8E8E8" transform="translate(0,0)"/>
<path d="" fill="#E8E8E8" transform="translate(0,0)"/>
<path d="" fill="#E8E8E8" transform="translate(0,0)"/>
<path d="" fill="#E9E9E9" transform="translate(0,0)"/>
<path d="" fill="#E8E8E8" transform="translate(0,0)"/>
<path d="" fill="#E9E9E9" transform="translate(0,0)"/>
<path d="" fill="#E8E8E8" transform="translate(0,0)"/>
<path d="" fill="#E9E9E9" transform="translate(0,0)"/>
<path d="" fill="#E7E7E7" transform="translate(0,0)"/>
<path d="" fill="#E9E9E9" transform="translate(0,0)"/>
<path d="" fill="#E8E8E8" transform="translate(0,0)"/>
<path d="" fill="#E9E9E9" transform="translate(0,0)"/>
<path d="" fill="#E8E8E8" transform="translate(0,0)"/>
<path d="" fill="#EAEAEA" transform="translate(0,0)"/>
<path d="" fill="#E8E8E8" transform="translate(0,0)"/>
<path d="" fill="#EAEAEA" transform="translate(0,0)"/>
<path d="" fill="#E7E7E7" transform="translate(0,0)"/>
<path d="" fill="#E9E9E9" transform="translate(0,0)"/>
<path d="" fill="#E7E7E7" transform="translate(0,0)"/>
<path d="" fill="#E8E8E8" transform="translate(0,0)"/>
<path d="" fill="#E8E8E8" transform="translate(0,0)"/>
<path d="" fill="#E8E8E8" transform="translate(0,0)"/>
<path d="" fill="#E9E9E9" transform="translate(0,0)"/>
<path d="" fill="#EAEAEA" transform="translate(0,0)"/>
<path d="" fill="#EAEAEA" transform="translate(0,0)"/>
<path d="" fill="#EAEAEA" transform="translate(0,0)"/>
<path d="" fill="#E9E9E9" transform="translate(0,0)"/>
<path d="" fill="#EAEAEA" transform="translate(0,0)"/>
<path d="" fill="#E9E9E9" transform="translate(0,0)"/>
<path d="" fill="#EAEAEA" transform="translate(0,0)"/>
<path d="" fill="#E7E7E7" transform="translate(0,0)"/>
<path d="" fill="#EAEAEA" transform="translate(0,0)"/>
<path d="" fill="#E6E6E6" transform="translate(0,0)"/>
<path d="" fill="#EAEAEA" transform="translate(0,0)"/>
<path d="" fill="#EAEAEA" transform="translate(0,0)"/>
<path d="" fill="#E9E9E9" transform="translate(0,0)"/>
<path d="" fill="#E9E9E9" transform="translate(0,0)"/>
<path d="" fill="#E8E8E8" transform="translate(0,0)"/>
<path d="" fill="#E9E9E9" transform="translate(0,0)"/>
<path d="" fill="#EAEAEA" transform="translate(0,0)"/>
<path d="M0 0 C2 1 2 1 2 1 Z " fill="#EAEAEA" transform="translate(54,44)"/>
<path d="M0 0 C2 1 2 1 2 1 Z " fill="#EAEAEA" transform="translate(198,42)"/>
<path d="M0 0 C2 1 2 1 2 1 Z " fill="#E7E7E7" transform="translate(60,39)"/>
<path d="M0 0 C2 1 2 1 2 1 Z " fill="#E9E9E9" transform="translate(193,38)"/>
<path d="M0 0 C2 1 2 1 2 1 Z " fill="#EAEAEA" transform="translate(190,36)"/>
<path d="M0 0 C2 1 2 1 2 1 Z " fill="#EAEAEA" transform="translate(187,34)"/>
<path d="M0 0 C2 1 2 1 2 1 Z " fill="#E9E9E9" transform="translate(67,34)"/>
<path d="M0 0 C2 1 2 1 2 1 Z " fill="#EAEAEA" transform="translate(184,32)"/>
<path d="M0 0 C2 1 2 1 2 1 Z " fill="#EAEAEA" transform="translate(72,31)"/>
<path d="M0 0 C2 1 2 1 2 1 Z " fill="#EAEAEA" transform="translate(74,30)"/>
<path d="M0 0 C2 1 2 1 2 1 Z " fill="#E9E9E9" transform="translate(179,29)"/>
<path d="M0 0 C2 1 2 1 2 1 Z " fill="#E9E9E9" transform="translate(177,28)"/>
<path d="M0 0 C2 1 2 1 2 1 Z " fill="#E9E9E9" transform="translate(175,27)"/>
<path d="M0 0 C2 1 2 1 2 1 Z " fill="#E9E9E9" transform="translate(173,26)"/>
<path d="M0 0 C2 1 2 1 2 1 Z " fill="#EAEAEA" transform="translate(82,26)"/>
<path d="M0 0 C2 1 2 1 2 1 Z " fill="#E9E9E9" transform="translate(170,25)"/>
<path d="M0 0 C2 1 2 1 2 1 Z " fill="#EAEAEA" transform="translate(84,25)"/>
<path d="M0 0 C2 1 2 1 2 1 Z " fill="#E9E9E9" transform="translate(168,24)"/>
<path d="M0 0 C2 1 2 1 2 1 Z " fill="#E9E9E9" transform="translate(86,24)"/>
<path d="M0 0 C2 1 2 1 2 1 Z " fill="#E8E8E8" transform="translate(165,23)"/>
<path d="M0 0 C2 1 2 1 2 1 Z " fill="#E7E7E7" transform="translate(89,23)"/>
<path d="M0 0 C2 1 2 1 2 1 Z " fill="#E8E8E8" transform="translate(163,22)"/>
<path d="M0 0 C2 1 2 1 2 1 Z " fill="#E7E7E7" transform="translate(92,22)"/>
<path d="M0 0 C2 1 2 1 2 1 Z " fill="#E8E8E8" transform="translate(95,21)"/>
<path d="M0 0 C2 1 2 1 2 1 Z " fill="#EAEAEA" transform="translate(98,20)"/>
<path d="" fill="#E8E8E8" transform="translate(0,0)"/>
<path d="" fill="#E9E9E9" transform="translate(0,0)"/>
<path d="" fill="#E9E9E9" transform="translate(0,0)"/>
<path d="" fill="#E9E9E9" transform="translate(0,0)"/>
<path d="" fill="#E8E8E8" transform="translate(0,0)"/>
<path d="" fill="#E8E8E8" transform="translate(0,0)"/>
<path d="" fill="#E9E9E9" transform="translate(0,0)"/>
<path d="" fill="#EAEAEA" transform="translate(0,0)"/>
<path d="" fill="#E9E9E9" transform="translate(0,0)"/>
<path d="" fill="#E9E9E9" transform="translate(0,0)"/>
<path d="" fill="#E9E9E9" transform="translate(0,0)"/>
<path d="" fill="#E9E9E9" transform="translate(0,0)"/>
<path d="" fill="#E9E9E9" transform="translate(0,0)"/>
<path d="" fill="#E7E7E7" transform="translate(0,0)"/>
<path d="" fill="#E9E9E9" transform="translate(0,0)"/>
<path d="" fill="#E7E7E7" transform="translate(0,0)"/>
<path d="" fill="#E9E9E9" transform="translate(0,0)"/>
<path d="" fill="#E7E7E7" transform="translate(0,0)"/>
<path d="" fill="#E9E9E9" transform="translate(0,0)"/>
<path d="" fill="#E8E8E8" transform="translate(0,0)"/>
<path d="" fill="#E8E8E8" transform="translate(0,0)"/>
<path d="" fill="#E8E8E8" transform="translate(0,0)"/>
<path d="" fill="#E9E9E9" transform="translate(0,0)"/>
<path d="" fill="#E9E9E9" transform="translate(0,0)"/>
<path d="" fill="#EAEAEA" transform="translate(0,0)"/>
<path d="" fill="#E9E9E9" transform="translate(0,0)"/>
<path d="" fill="#EAEAEA" transform="translate(0,0)"/>
<path d="" fill="#EAEAEA" transform="translate(0,0)"/>
<path d="" fill="#E9E9E9" transform="translate(0,0)"/>
<path d="" fill="#EAEAEA" transform="translate(0,0)"/>
<path d="" fill="#E9E9E9" transform="translate(0,0)"/>
<path d="" fill="#E9E9E9" transform="translate(0,0)"/>
<path d="" fill="#E9E9E9" transform="translate(0,0)"/>
<path d="" fill="#E8E8E8" transform="translate(0,0)"/>
<path d="" fill="#EAEAEA" transform="translate(0,0)"/>
<path d="" fill="#E8E8E8" transform="translate(0,0)"/>
<path d="" fill="#EAEAEA" transform="translate(0,0)"/>
<path d="" fill="#E8E8E8" transform="translate(0,0)"/>
<path d="" fill="#EAEAEA" transform="translate(0,0)"/>
<path d="" fill="#E9E9E9" transform="translate(0,0)"/>
<path d="" fill="#E9E9E9" transform="translate(0,0)"/>
<path d="" fill="#EAEAEA" transform="translate(0,0)"/>
<path d="" fill="#E9E9E9" transform="translate(0,0)"/>
<path d="" fill="#EAEAEA" transform="translate(0,0)"/>
<path d="" fill="#E9E9E9" transform="translate(0,0)"/>
<path d="" fill="#EAEAEA" transform="translate(0,0)"/>
<path d="" fill="#E9E9E9" transform="translate(0,0)"/>
<path d="" fill="#E9E9E9" transform="translate(0,0)"/>
<path d="" fill="#E9E9E9" transform="translate(0,0)"/>
<path d="" fill="#E8E8E8" transform="translate(0,0)"/>
<path d="" fill="#E8E8E8" transform="translate(0,0)"/>
<path d="" fill="#E8E8E8" transform="translate(0,0)"/>
<path d="" fill="#E8E8E8" transform="translate(0,0)"/>
<path d="" fill="#E7E7E7" transform="translate(0,0)"/>
<path d="" fill="#E7E7E7" transform="translate(0,0)"/>
<path d="" fill="#E8E8E8" transform="translate(0,0)"/>
<path d="" fill="#E7E7E7" transform="translate(0,0)"/>
<path d="" fill="#E9E9E9" transform="translate(0,0)"/>
<path d="" fill="#E9E9E9" transform="translate(0,0)"/>
<path d="" fill="#EAEAEA" transform="translate(0,0)"/>
<path d="" fill="#E9E9E9" transform="translate(0,0)"/>
<path d="" fill="#EAEAEA" transform="translate(0,0)"/>
<path d="" fill="#E9E9E9" transform="translate(0,0)"/>
<path d="" fill="#E9E9E9" transform="translate(0,0)"/>
<path d="" fill="#E7E7E7" transform="translate(0,0)"/>
<path d="" fill="#E7E7E7" transform="translate(0,0)"/>
<path d="" fill="#E9E9E9" transform="translate(0,0)"/>
<path d="" fill="#EAEAEA" transform="translate(0,0)"/>
<path d="" fill="#E5E5E5" transform="translate(0,0)"/>
<path d="" fill="#E9E9E9" transform="translate(0,0)"/>
<path d="" fill="#E8E8E8" transform="translate(0,0)"/>
<path d="" fill="#E9E9E9" transform="translate(0,0)"/>
<path d="" fill="#E9E9E9" transform="translate(0,0)"/>
<path d="" fill="#E9E9E9" transform="translate(0,0)"/>
<path d="" fill="#E9E9E9" transform="translate(0,0)"/>
<path d="" fill="#E9E9E9" transform="translate(0,0)"/>
<path d="" fill="#E8E8E8" transform="translate(0,0)"/>
<path d="" fill="#E5E5E5" transform="translate(0,0)"/>
<path d="" fill="#E8E8E8" transform="translate(0,0)"/>
<path d="" fill="#E8E8E8" transform="translate(0,0)"/>
<path d="" fill="#E8E8E8" transform="translate(0,0)"/>
<path d="" fill="#E7E7E7" transform="translate(0,0)"/>
<path d="" fill="#E9E9E9" transform="translate(0,0)"/>
<path d="" fill="#E9E9E9" transform="translate(0,0)"/>
<path d="" fill="#E8E8E8" transform="translate(0,0)"/>
<path d="" fill="#EAEAEA" transform="translate(0,0)"/>
<path d="" fill="#E8E8E8" transform="translate(0,0)"/>
<path d="" fill="#E9E9E9" transform="translate(0,0)"/>
<path d="" fill="#E9E9E9" transform="translate(0,0)"/>
<path d="" fill="#E9E9E9" transform="translate(0,0)"/>
<path d="" fill="#E8E8E8" transform="translate(0,0)"/>
<path d="" fill="#E8E8E8" transform="translate(0,0)"/>
<path d="" fill="#EAEAEA" transform="translate(0,0)"/>
<path d="" fill="#E8E8E8" transform="translate(0,0)"/>
<path d="" fill="#EAEAEA" transform="translate(0,0)"/>
<path d="" fill="#E8E8E8" transform="translate(0,0)"/>
<path d="" fill="#E9E9E9" transform="translate(0,0)"/>
<path d="" fill="#E8E8E8" transform="translate(0,0)"/>
<path d="" fill="#E9E9E9" transform="translate(0,0)"/>
<path d="" fill="#E9E9E9" transform="translate(0,0)"/>
<path d="" fill="#E9E9E9" transform="translate(0,0)"/>
<path d="" fill="#E9E9E9" transform="translate(0,0)"/>
<path d="" fill="#E9E9E9" transform="translate(0,0)"/>
<path d="" fill="#E9E9E9" transform="translate(0,0)"/>
<path d="" fill="#EAEAEA" transform="translate(0,0)"/>
<path d="" fill="#E9E9E9" transform="translate(0,0)"/>
<path d="" fill="#EAEAEA" transform="translate(0,0)"/>
<path d="" fill="#EAEAEA" transform="translate(0,0)"/>
<path d="" fill="#EAEAEA" transform="translate(0,0)"/>
<path d="" fill="#EAEAEA" transform="translate(0,0)"/>
<path d="" fill="#EAEAEA" transform="translate(0,0)"/>
<path d="" fill="#E9E9E9" transform="translate(0,0)"/>
<path d="" fill="#E9E9E9" transform="translate(0,0)"/>
<path d="" fill="#EAEAEA" transform="translate(0,0)"/>
<path d="" fill="#E8E8E8" transform="translate(0,0)"/>
<path d="" fill="#EAEAEA" transform="translate(0,0)"/>
<path d="" fill="#E8E8E8" transform="translate(0,0)"/>
<path d="" fill="#E9E9E9" transform="translate(0,0)"/>
<path d="" fill="#E8E8E8" transform="translate(0,0)"/>
<path d="" fill="#E9E9E9" transform="translate(0,0)"/>
<path d="" fill="#E8E8E8" transform="translate(0,0)"/>
<path d="" fill="#E8E8E8" transform="translate(0,0)"/>
<path d="" fill="#EAEAEA" transform="translate(0,0)"/>
<path d="" fill="#E9E9E9" transform="translate(0,0)"/>
<path d="" fill="#EAEAEA" transform="translate(0,0)"/>
<path d="" fill="#E9E9E9" transform="translate(0,0)"/>
<path d="" fill="#E9E9E9" transform="translate(0,0)"/>
<path d="" fill="#E9E9E9" transform="translate(0,0)"/>
<path d="" fill="#E9E9E9" transform="translate(0,0)"/>
<path d="" fill="#EAEAEA" transform="translate(0,0)"/>
<path d="" fill="#EAEAEA" transform="translate(0,0)"/>
<path d="" fill="#EAEAEA" transform="translate(0,0)"/>
</svg>
