<?xml version="1.0" encoding="UTF-8"?>
<svg version="1.1" xmlns="http://www.w3.org/2000/svg" width="256" height="256">
<path d="M0 0 C2.49454301 2.20656144 4.91305983 4.47201309 7.31640625 6.77734375 C8.13753906 7.5353125 8.95867187 8.29328125 9.8046875 9.07421875 C16.70206788 15.63906601 22.08876084 22.87073008 27.31640625 30.77734375 C28.25806641 32.17533203 28.25806641 32.17533203 29.21875 33.6015625 C46.48298365 61.0442559 51.32622198 97.47999966 44.22143555 128.94824219 C35.77304441 162.20562491 15.87207805 191.57433342 -13.69238281 209.60302734 C-22.36157516 214.71568247 -31.21853174 218.83430269 -40.74609375 222.08984375 C-41.41688965 222.32034424 -42.08768555 222.55084473 -42.77880859 222.78833008 C-55.6018666 226.9166331 -68.06703254 228.33327474 -81.43359375 228.21484375 C-82.17682892 228.21147003 -82.92006409 228.20809631 -83.68582153 228.20462036 C-95.40295793 228.12777277 -106.4660385 227.3549171 -117.68359375 223.77734375 C-118.46154297 223.5359668 -119.23949219 223.29458984 -120.04101562 223.04589844 C-137.2003557 217.58485946 -151.84522162 209.21401493 -165.68359375 197.77734375 C-166.83988281 196.83375 -166.83988281 196.83375 -168.01953125 195.87109375 C-172.73276005 191.89825722 -176.80455576 187.56231418 -180.68359375 182.77734375 C-181.38355469 181.91496094 -182.08351562 181.05257812 -182.8046875 180.1640625 C-193.34566002 166.66357949 -200.61397827 152.1165317 -205.68359375 135.77734375 C-205.90950195 135.06900391 -206.13541016 134.36066406 -206.36816406 133.63085938 C-212.80813551 112.48084561 -212.38363034 84.78544708 -205.68359375 63.77734375 C-205.4422168 62.99939453 -205.20083984 62.22144531 -204.95214844 61.41992188 C-194.51503677 28.6250729 -172.11922746 1.78049811 -141.78515625 -14.51879883 C-132.78996629 -19.14416639 -123.40115901 -22.47075961 -113.68359375 -25.22265625 C-112.50539063 -25.56425781 -111.3271875 -25.90585937 -110.11328125 -26.2578125 C-72.15968565 -35.2248708 -29.81851814 -24.69685127 0 0 Z " fill="#484647" transform="translate(209.68359375,28.22265625)"/>
<path d="M0 0 C12.40518185 4.91097588 21.19972558 24.59242613 26.3125 36.125 C38.41996732 66.00797335 38.41709792 98.29043471 26.1796875 128.0625 C21.79264318 138.25327914 16.23917691 147.55942777 9 156 C8.31164062 156.80953125 7.62328125 157.6190625 6.9140625 158.453125 C-6.55063441 173.85484849 -21.94576133 184.73586555 -41 192 C-41.9595459 192.36931641 -41.9595459 192.36931641 -42.93847656 192.74609375 C-71.4688823 203.52327611 -103.36353816 201.25693133 -131 189 C-143.18367566 183.16563971 -154.56783056 175.72108274 -164 166 C-160.32221031 157.93359667 -152.86947654 151.6877059 -146.6875 145.5 C-145.97271484 144.77296875 -145.25792969 144.0459375 -144.52148438 143.296875 C-143.83763672 142.61109375 -143.15378906 141.9253125 -142.44921875 141.21875 C-141.83393311 140.59935547 -141.21864746 139.97996094 -140.5847168 139.34179688 C-139 138 -139 138 -137 138 C-137 137.34 -137 136.68 -137 136 C-133.3096835 136.56030983 -130.93472309 137.56632458 -127.8125 139.5625 C-120.31428521 143.53415715 -112.24971983 142.30782537 -104 142 C-104 148.93 -104 155.86 -104 163 C-90.14 163 -76.28 163 -62 163 C-62.12375 153.47125 -62.12375 153.47125 -62.25 143.75 C-62.27368652 140.7814502 -62.27368652 140.7814502 -62.29785156 137.75292969 C-62.44516275 128.13581752 -63.01432659 119.90240748 -67 111 C-66.0925 110.7525 -65.185 110.505 -64.25 110.25 C-62.83233212 109.83675268 -61.41582882 109.41950484 -60 109 C-58.60394531 108.5978125 -58.60394531 108.5978125 -57.1796875 108.1875 C-45.49319235 104.60085187 -36.84163846 99.02853973 -30.45703125 88.44140625 C-26.92446538 80.99036396 -26.54440479 74.02546852 -26.5 65.875 C-26.49363525 64.87404297 -26.48727051 63.87308594 -26.48071289 62.84179688 C-26.62298151 54.46787958 -27.79098842 46.25793179 -32.3125 39.0625 C-32.869375 38.051875 -33.42625 37.04125 -34 36 C-30.81383434 26.60767492 -19.48200983 18.32635255 -12.625 11.5 C-11.73683594 10.60796875 -10.84867188 9.7159375 -9.93359375 8.796875 C-9.08152344 7.94609375 -8.22945312 7.0953125 -7.3515625 6.21875 C-6.20421631 5.0730957 -6.20421631 5.0730957 -5.03369141 3.90429688 C-3 2 -3 2 0 0 Z " fill="#1A1819" transform="translate(210,46)"/>
<path d="M0 0 C6.8244415 0.34122207 11.3098044 4.15021653 15.84375 8.953125 C17.26964144 10.60769714 18.65564642 12.27882004 20 14 C20.92296875 13.71125 21.8459375 13.4225 22.796875 13.125 C38.28199734 8.59557148 57.3139083 7.11599036 72.375 14.1015625 C72.91125 14.39804688 73.4475 14.69453125 74 15 C74.165 14.319375 74.33 13.63875 74.5 12.9375 C77.59485872 6.876735 83.71824381 2.42704216 90 0 C91.32 0 92.64 0 94 0 C95.62814429 4.28594504 96.24846389 7.79716634 96.1875 12.375 C96.17589844 13.50679687 96.16429687 14.63859375 96.15234375 15.8046875 C96.02594299 18.45586247 95.72978337 20.89828814 95.25 23.5 C94.62667238 27.00761016 94.62667238 27.00761016 96.6875 29.375 C97.450625 30.24125 98.21375 31.1075 99 32 C105.49330338 45.57280776 107.06359397 64.04196778 102.0625 78.375 C97.48791573 88.02531681 89.88225161 95.84451969 80 100 C74.74568726 101.65885245 69.38754376 102.86366943 64 104 C64.28584961 104.62551758 64.57169922 105.25103516 64.86621094 105.89550781 C68.93054192 116.1007057 68.4492565 125.92137904 68.25 136.75 C68.1675 143.1025 68.085 149.455 68 156 C54.14 156 40.28 156 26 156 C26 149.07 26 142.14 26 135 C25.34 135.33 24.68 135.66 24 136 C14.48757839 136.77788494 5.93872728 137.01687524 -2 131 C-7.48221993 126.27001815 -10.85371335 120.13029748 -14.24853516 113.83618164 C-15.89852988 110.79065429 -17.4995931 108.38464732 -20 106 C-20 105.34 -20 104.68 -20 104 C-20.639375 103.731875 -21.27875 103.46375 -21.9375 103.1875 C-24 102 -24 102 -25 99 C-19.40015522 98.71035286 -15.78335922 98.74324479 -11 102 C-7.90686867 105.12836062 -5.16699963 108.53033712 -2.43359375 111.97265625 C-1.93988281 112.57980469 -1.44617188 113.18695313 -0.9375 113.8125 C-0.51339844 114.35519531 -0.08929688 114.89789063 0.34765625 115.45703125 C5.52315903 120.28994756 10.70388269 120.39497494 17.375 120.1875 C18.20644531 120.17396484 19.03789063 120.16042969 19.89453125 120.14648438 C21.92997066 120.11139059 23.96507291 120.05759228 26 120 C26.03738281 119.33613281 26.07476562 118.67226562 26.11328125 117.98828125 C26.17902344 117.10527344 26.24476562 116.22226563 26.3125 115.3125 C26.39951172 114.00732422 26.39951172 114.00732422 26.48828125 112.67578125 C27.07610296 109.60205703 28.2654755 107.58086085 30 105 C28.75605469 104.6596875 27.51210937 104.319375 26.23046875 103.96875 C12.95804376 100.1720547 1.22823294 95.53805959 -6 83 C-9.87090354 74.83670211 -10.59351457 67.44819028 -10.4375 58.5 C-10.44458984 57.35402344 -10.45167969 56.20804688 -10.45898438 55.02734375 C-10.39165991 45.92300401 -9.70595186 36.46997039 -3.6875 29.1875 C-2.09919521 27.06406772 -2.09919521 27.06406772 -1 25 C-1.54839062 22.01779872 -1.54839062 22.01779872 -3 19 C-3.72842449 11.95493922 -2.90952081 6.42519179 0 0 Z " fill="#FDFDFD" transform="translate(80,53)"/>
<path d="M0 0 C2.49454301 2.20656144 4.91305983 4.47201309 7.31640625 6.77734375 C8.13753906 7.5353125 8.95867187 8.29328125 9.8046875 9.07421875 C16.70206788 15.63906601 22.08876084 22.87073008 27.31640625 30.77734375 C28.25806641 32.17533203 28.25806641 32.17533203 29.21875 33.6015625 C46.48298365 61.0442559 51.32622198 97.47999966 44.22143555 128.94824219 C35.77304441 162.20562491 15.87207805 191.57433342 -13.69238281 209.60302734 C-22.36157516 214.71568247 -31.21853174 218.83430269 -40.74609375 222.08984375 C-41.41688965 222.32034424 -42.08768555 222.55084473 -42.77880859 222.78833008 C-55.6018666 226.9166331 -68.06703254 228.33327474 -81.43359375 228.21484375 C-82.17682892 228.21147003 -82.92006409 228.20809631 -83.68582153 228.20462036 C-95.40295793 228.12777277 -106.4660385 227.3549171 -117.68359375 223.77734375 C-118.46154297 223.5359668 -119.23949219 223.29458984 -120.04101562 223.04589844 C-137.2003557 217.58485946 -151.84522162 209.21401493 -165.68359375 197.77734375 C-166.83988281 196.83375 -166.83988281 196.83375 -168.01953125 195.87109375 C-172.73276005 191.89825722 -176.80455576 187.56231418 -180.68359375 182.77734375 C-181.38355469 181.91496094 -182.08351562 181.05257812 -182.8046875 180.1640625 C-193.34566002 166.66357949 -200.61397827 152.1165317 -205.68359375 135.77734375 C-205.90950195 135.06900391 -206.13541016 134.36066406 -206.36816406 133.63085938 C-212.80813551 112.48084561 -212.38363034 84.78544708 -205.68359375 63.77734375 C-205.4422168 62.99939453 -205.20083984 62.22144531 -204.95214844 61.41992188 C-194.51503677 28.6250729 -172.11922746 1.78049811 -141.78515625 -14.51879883 C-132.78996629 -19.14416639 -123.40115901 -22.47075961 -113.68359375 -25.22265625 C-112.50539063 -25.56425781 -111.3271875 -25.90585937 -110.11328125 -26.2578125 C-72.15968565 -35.2248708 -29.81851814 -24.69685127 0 0 Z M-110.68359375 -14.22265625 C-111.3806543 -14.02397949 -112.07771484 -13.82530273 -112.79589844 -13.62060547 C-133.98752571 -7.4943988 -150.89360667 3.42174421 -166.68359375 18.77734375 C-167.46605469 19.53402344 -168.24851562 20.29070313 -169.0546875 21.0703125 C-191.68438834 44.5067763 -199.17234893 75.2960992 -198.90234375 106.84375 C-198.73849655 114.48824581 -197.79390918 121.40494308 -195.68359375 128.77734375 C-195.41675781 129.82792969 -195.14992187 130.87851563 -194.875 131.9609375 C-189.4297285 151.73332334 -178.74239914 168.07482016 -164.68359375 182.77734375 C-164.06226563 183.46183594 -163.4409375 184.14632812 -162.80078125 184.8515625 C-150.80949403 197.62052734 -134.40505041 206.09777723 -117.99609375 211.65234375 C-117.15369141 211.93867676 -116.31128906 212.22500977 -115.44335938 212.52001953 C-86.0025744 222.00104691 -54.0100029 217.46930542 -26.734375 203.86328125 C1.59421048 188.44593238 22.01919437 162.79115175 31.63232422 132.13574219 C39.93632104 103.50740197 36.30899162 70.97957522 22.44140625 44.71484375 C6.18496758 15.31103499 -20.20309156 -4.31449395 -51.9453125 -13.9609375 C-61.79903686 -16.70382261 -71.21482584 -17.58381043 -81.43359375 -17.53515625 C-82.67351074 -17.5295166 -83.91342773 -17.52387695 -85.19091797 -17.51806641 C-94.08125592 -17.40018218 -102.1212031 -16.76072507 -110.68359375 -14.22265625 Z " fill="#CFCFCF" transform="translate(209.68359375,28.22265625)"/>
<path d="M0 0 C0.99 0.66 1.98 1.32 3 2 C2.54625 2.61875 2.0925 3.2375 1.625 3.875 C-0.27665626 7.53203126 -0.84443547 10.84607977 -1.47265625 14.890625 C-1.73369141 15.93476563 -1.73369141 15.93476563 -2 17 C-5.14402481 18.5720124 -8.48947397 18.18446744 -11.9375 18.1875 C-12.66646484 18.19974609 -13.39542969 18.21199219 -14.14648438 18.22460938 C-17.9713391 18.23512685 -19.74356564 18.17095624 -23 16 C-21.55922954 12.63820226 -19.75249979 10.40843732 -17 8 C-16.34 8 -15.68 8 -15 8 C-14.6596875 7.13375 -14.6596875 7.13375 -14.3125 6.25 C-10.68470796 0.03092793 -6.68015213 -0.64646633 0 0 Z " fill="#1E1E1E" transform="translate(108,156)"/>
<path d="M0 0 C4.62 0 9.24 0 14 0 C14 0.33 14 0.66 14 1 C11.36 1 8.72 1 6 1 C6 1.66 6 2.32 6 3 C4.02 2.34 2.04 1.68 0 1 C0 0.67 0 0.34 0 0 Z " fill="#C0C0C0" transform="translate(118,245)"/>
</svg>
